<svg xmlns="http://www.w3.org/2000/svg" height="24px" width="24px" fill="#ffffff" version="1.1" viewBox="-5.0 -10.0 110.0 135.0">
 <g>
  <path d="m40 12.094 2.3711 7.1133c5 15 7.3164 18.969 18.555 23.469l5.8047 2.3203-5.8047 2.3203c-11.219 4.5-13.535 8.4531-18.559 23.469l-2.375 7.1016-2.3711-7.1055c-4.9609-14.875-7.2656-18.824-18.578-23.5l-5.6992-2.3438 5.7188-2.2891c11.246-4.5 13.555-8.4648 18.555-23.469zm14 32.906c-3.4492-1.707-6.457-4.1875-8.7891-7.25-2.1953-3.1328-3.9414-6.5586-5.1875-10.176-1.2422 3.6172-2.9883 7.043-5.1836 10.176-2.3438 3.0781-5.3711 5.5703-8.8438 7.2812 6.875 3.6289 11.949 9.9336 14.027 17.422 1.25-3.625 3-7.0586 5.1953-10.203 2.3281-3.0625 5.3359-5.543 8.7812-7.25z"/>
  <path d="m65 52.094 2.3711 7.1133c2.4258 7.2812 3.3555 8.8906 8.5547 10.969l5.8047 2.3203-5.8047 2.3203c-5.1914 2.0742-6.1211 3.6836-8.5586 10.969l-2.375 7.1016-2.3711-7.1055c-2.4062-7.2188-3.3359-8.8203-8.5781-11l-5.6992-2.3438 5.7188-2.2891c5.1992-2.0781 6.1289-3.6914 8.5547-10.969zm4.5898 20.406c-2-1.4062-3.5859-3.3242-4.5898-5.5547-1.0078 2.2383-2.6016 4.1641-4.6133 5.5703 2.0039 1.4023 3.5977 3.3203 4.6133 5.5508 1.0039-2.2344 2.5898-4.1562 4.5898-5.5664z"/>
  <path d="m70 33.75c3.125-1.25 3.75-2.5 5-6.25 1.25 3.75 1.875 5 5 6.25-3.125 1.25-3.7461 2.5-5 6.25-1.25-3.75-1.8906-4.9688-5-6.25z"/>
  <path d="m75 19.594 2.3711 7.1133c1.1602 3.5 1.4609 3.8789 3.5547 4.7188l5.8047 2.3203-5.8047 2.3203c-2.0898 0.83594-2.3906 1.2344-3.5586 4.7188l-2.375 7.1016-2.3711-7.1055c-1.1484-3.4531-1.4531-3.8555-3.5781-4.7305l-5.6992-2.3438 5.7188-2.2891c2.0938-0.83984 2.3945-1.2344 3.5547-4.7188z"/>
 </g>
</svg>