<svg width="496" height="213" viewBox="0 0 496 213" fill="none" xmlns="http://www.w3.org/2000/svg">
<g clip-path="url(#clip0_1_27)">
<path d="M14 147.504L47.792 113.584V112.816L14 79.152H26.288L60.336 113.2L26.288 147.504H14ZM106.366 159.536C100.137 159.536 94.718 158.341 90.11 155.952C85.502 153.477 81.9607 150.107 79.486 145.84C77.0113 141.573 75.774 136.624 75.774 130.992H85.118C85.118 134.661 85.9287 138.032 87.55 141.104C89.1713 144.176 91.5607 146.651 94.718 148.528C97.8753 150.405 101.758 151.344 106.366 151.344C112.851 151.344 117.801 149.765 121.214 146.608C124.627 143.365 126.334 139.653 126.334 135.472C126.334 132.059 125.609 129.2 124.158 126.896C122.793 124.507 120.403 122.373 116.99 120.496C113.577 118.619 108.841 116.784 102.782 114.992C94.1633 112.347 87.8913 108.933 83.966 104.752C80.0407 100.485 78.078 95.152 78.078 88.752C78.078 84.656 79.1447 80.9867 81.278 77.744C83.4113 74.416 86.526 71.7707 90.622 69.808C94.8033 67.8453 99.838 66.864 105.726 66.864C111.358 66.864 116.222 67.9307 120.318 70.064C124.499 72.1973 127.699 75.1413 129.918 78.896C132.222 82.5653 133.374 86.7467 133.374 91.44H124.158C124.158 88.88 123.475 86.3627 122.11 83.888C120.745 81.328 118.654 79.2373 115.838 77.616C113.107 75.9093 109.566 75.056 105.214 75.056C100.094 75.056 95.8273 76.2933 92.414 78.768C89.0007 81.1573 87.294 84.528 87.294 88.88C87.294 91.952 87.9767 94.5547 89.342 96.688C90.7073 98.8213 93.054 100.784 96.382 102.576C99.71 104.283 104.275 106.117 110.078 108.08C115.625 109.957 120.275 112.048 124.03 114.352C127.87 116.571 130.729 119.344 132.606 122.672C134.569 125.915 135.55 130.011 135.55 134.96C135.55 139.739 134.27 144.005 131.71 147.76C129.235 151.429 125.822 154.331 121.47 156.464C117.118 158.512 112.083 159.536 106.366 159.536ZM148.172 158V94.512H155.468L156.62 104.112H157.132C158.839 101.125 161.527 98.5227 165.196 96.304C168.951 94.0853 173.303 92.976 178.252 92.976C186.017 92.976 191.82 95.28 195.66 99.888C199.5 104.411 201.42 110.853 201.42 119.216V158H192.46V120.24C192.46 114.352 191.137 109.744 188.492 106.416C185.847 103.088 181.793 101.424 176.332 101.424C171.041 101.424 166.519 103.259 162.764 106.928C159.009 110.512 157.132 115.717 157.132 122.544V158H148.172ZM243.098 82.224C240.965 82.224 239.087 81.456 237.466 79.92C235.93 78.2987 235.162 76.4213 235.162 74.288C235.162 72.0693 235.93 70.192 237.466 68.656C239.087 67.12 240.965 66.352 243.098 66.352C245.317 66.352 247.194 67.12 248.73 68.656C250.266 70.192 251.034 72.0693 251.034 74.288C251.034 76.4213 250.266 78.2987 248.73 79.92C247.194 81.456 245.317 82.224 243.098 82.224ZM218.65 158V150.32H239.13V104.752C239.13 103.045 238.277 102.192 236.57 102.192H221.21V94.512H239.13C245.103 94.512 248.09 97.4987 248.09 103.472V150.32H268.57V158H218.65ZM284.904 186.16V94.512H291.816L293.096 105.52H293.864C295.485 101.936 298.131 98.9493 301.8 96.56C305.469 94.1707 309.779 92.976 314.728 92.976C320.019 92.976 324.712 94.2987 328.808 96.944C332.904 99.504 336.147 103.301 338.536 108.336C340.925 113.285 342.12 119.301 342.12 126.384C342.12 133.467 340.925 139.483 338.536 144.432C336.147 149.381 332.861 153.136 328.68 155.696C324.499 158.256 319.635 159.536 314.088 159.536C309.053 159.536 304.787 158.427 301.288 156.208C297.789 153.904 295.315 151.259 293.864 148.272V186.16H284.904ZM313.448 151.088C319.165 151.088 323.859 149.04 327.528 144.944C331.197 140.848 333.032 134.619 333.032 126.256C333.032 117.893 331.197 111.664 327.528 107.568C323.859 103.472 319.165 101.424 313.448 101.424C307.731 101.424 303.037 103.472 299.368 107.568C295.699 111.664 293.864 117.893 293.864 126.256C293.864 134.619 295.699 140.848 299.368 144.944C303.037 149.04 307.731 151.088 313.448 151.088ZM353.974 186.16V94.512H360.886L362.166 105.52H362.934C364.555 101.936 367.201 98.9493 370.87 96.56C374.539 94.1707 378.849 92.976 383.798 92.976C389.089 92.976 393.782 94.2987 397.878 96.944C401.974 99.504 405.217 103.301 407.606 108.336C409.995 113.285 411.19 119.301 411.19 126.384C411.19 133.467 409.995 139.483 407.606 144.432C405.217 149.381 401.931 153.136 397.75 155.696C393.569 158.256 388.705 159.536 383.158 159.536C378.123 159.536 373.857 158.427 370.358 156.208C366.859 153.904 364.385 151.259 362.934 148.272V186.16H353.974ZM382.518 151.088C388.235 151.088 392.929 149.04 396.598 144.944C400.267 140.848 402.102 134.619 402.102 126.256C402.102 117.893 400.267 111.664 396.598 107.568C392.929 103.472 388.235 101.424 382.518 101.424C376.801 101.424 372.107 103.472 368.438 107.568C364.769 111.664 362.934 117.893 362.934 126.256C362.934 134.619 364.769 140.848 368.438 144.944C372.107 149.04 376.801 151.088 382.518 151.088ZM423.044 186.16V94.512H429.956L431.236 105.52H432.004C433.625 101.936 436.271 98.9493 439.94 96.56C443.609 94.1707 447.919 92.976 452.868 92.976C458.159 92.976 462.852 94.2987 466.948 96.944C471.044 99.504 474.287 103.301 476.676 108.336C479.065 113.285 480.26 119.301 480.26 126.384C480.26 133.467 479.065 139.483 476.676 144.432C474.287 149.381 471.001 153.136 466.82 155.696C462.639 158.256 457.775 159.536 452.228 159.536C447.193 159.536 442.927 158.427 439.428 156.208C435.929 153.904 433.455 151.259 432.004 148.272V186.16H423.044ZM451.588 151.088C457.305 151.088 461.999 149.04 465.668 144.944C469.337 140.848 471.172 134.619 471.172 126.256C471.172 117.893 469.337 111.664 465.668 107.568C461.999 103.472 457.305 101.424 451.588 101.424C445.871 101.424 441.177 103.472 437.508 107.568C433.839 111.664 432.004 117.893 432.004 126.256C432.004 134.619 433.839 140.848 437.508 144.944C441.177 149.04 445.871 151.088 451.588 151.088Z" fill="#0000FF"/>
</g>
<defs>
<clipPath id="clip0_1_27">
<rect width="496" height="213" fill="white"/>
</clipPath>
</defs>
</svg>
