<svg width="214" height="212" viewBox="0 0 214 212" fill="none" xmlns="http://www.w3.org/2000/svg">
<rect width="214" height="212" fill="white"/>
<path d="M50 146.504L83.792 112.584V111.816L50 78.152H62.288L96.336 112.2L62.288 146.504H50ZM142.366 158.536C136.137 158.536 130.718 157.341 126.11 154.952C121.502 152.477 117.961 149.107 115.486 144.84C113.011 140.573 111.774 135.624 111.774 129.992H121.118C121.118 133.661 121.929 137.032 123.55 140.104C125.171 143.176 127.561 145.651 130.718 147.528C133.875 149.405 137.758 150.344 142.366 150.344C148.851 150.344 153.801 148.765 157.214 145.608C160.627 142.365 162.334 138.653 162.334 134.472C162.334 131.059 161.609 128.2 160.158 125.896C158.793 123.507 156.403 121.373 152.99 119.496C149.577 117.619 144.841 115.784 138.782 113.992C130.163 111.347 123.891 107.933 119.966 103.752C116.041 99.4853 114.078 94.152 114.078 87.752C114.078 83.656 115.145 79.9867 117.278 76.744C119.411 73.416 122.526 70.7707 126.622 68.808C130.803 66.8453 135.838 65.864 141.726 65.864C147.358 65.864 152.222 66.9307 156.318 69.064C160.499 71.1973 163.699 74.1413 165.918 77.896C168.222 81.5653 169.374 85.7467 169.374 90.44H160.158C160.158 87.88 159.475 85.3627 158.11 82.888C156.745 80.328 154.654 78.2373 151.838 76.616C149.107 74.9093 145.566 74.056 141.214 74.056C136.094 74.056 131.827 75.2933 128.414 77.768C125.001 80.1573 123.294 83.528 123.294 87.88C123.294 90.952 123.977 93.5547 125.342 95.688C126.707 97.8213 129.054 99.784 132.382 101.576C135.71 103.283 140.275 105.117 146.078 107.08C151.625 108.957 156.275 111.048 160.03 113.352C163.87 115.571 166.729 118.344 168.606 121.672C170.569 124.915 171.55 129.011 171.55 133.96C171.55 138.739 170.27 143.005 167.71 146.76C165.235 150.429 161.822 153.331 157.47 155.464C153.118 157.512 148.083 158.536 142.366 158.536Z" fill="#0000FF"/>
</svg>
