<svg width="160" height="160" viewBox="0 0 160 160" fill="none" xmlns="http://www.w3.org/2000/svg">
<g clip-path="url(#clip0_1_31)">
<path d="M4 119.88L46.24 77.48V76.52L4 34.44H19.36L61.92 77L19.36 119.88H4ZM119.458 134.92C111.671 134.92 104.898 133.427 99.1375 130.44C93.3775 127.347 88.9508 123.133 85.8575 117.8C82.7642 112.467 81.2175 106.28 81.2175 99.24H92.8975C92.8975 103.827 93.9108 108.04 95.9375 111.88C97.9642 115.72 100.951 118.813 104.898 121.16C108.844 123.507 113.698 124.68 119.458 124.68C127.564 124.68 133.751 122.707 138.018 118.76C142.284 114.707 144.418 110.067 144.418 104.84C144.418 100.573 143.511 97 141.698 94.12C139.991 91.1333 137.004 88.4667 132.738 86.12C128.471 83.7733 122.551 81.48 114.978 79.24C104.204 75.9333 96.3642 71.6667 91.4575 66.44C86.5508 61.1067 84.0975 54.44 84.0975 46.44C84.0975 41.32 85.4308 36.7333 88.0975 32.68C90.7642 28.52 94.6575 25.2133 99.7775 22.76C105.004 20.3067 111.298 19.08 118.658 19.08C125.698 19.08 131.778 20.4133 136.898 23.08C142.124 25.7467 146.124 29.4267 148.898 34.12C151.778 38.7067 153.218 43.9333 153.218 49.8H141.698C141.698 46.6 140.844 43.4533 139.138 40.36C137.431 37.16 134.818 34.5467 131.298 32.52C127.884 30.3867 123.458 29.32 118.018 29.32C111.618 29.32 106.284 30.8667 102.018 33.96C97.7508 36.9467 95.6175 41.16 95.6175 46.6C95.6175 50.44 96.4708 53.6933 98.1775 56.36C99.8842 59.0267 102.818 61.48 106.978 63.72C111.138 65.8533 116.844 68.1467 124.098 70.6C131.031 72.9467 136.844 75.56 141.538 78.44C146.338 81.2133 149.911 84.68 152.258 88.84C154.711 92.8933 155.938 98.0133 155.938 104.2C155.938 110.173 154.338 115.507 151.138 120.2C148.044 124.787 143.778 128.413 138.338 131.08C132.898 133.64 126.604 134.92 119.458 134.92Z" fill="#0000FF"/>
</g>
<defs>
<clipPath id="clip0_1_31">
<rect width="160" height="160" fill="white"/>
</clipPath>
</defs>
</svg>
